<?xml version="1.0" encoding="utf-8"?>
<!-- Generator: Adobe Illustrator 19.0.0, SVG Export Plug-In . SVG Version: 6.00 Build 0)  -->
<svg version="1.1" id="Layer_1" xmlns="http://www.w3.org/2000/svg" xmlns:xlink="http://www.w3.org/1999/xlink" x="0px" y="0px"
	 viewBox="0 0 252.5 307" style="enable-background:new 0 0 252.5 307;" xml:space="preserve">
<style type="text/css">
	.st0{fill:#A53044;}
	.st1{fill:#939598;}
	.st2{fill-rule:evenodd;clip-rule:evenodd;fill:#F15B47;}
	.st3{fill:#C94B3B;}
	.st4{opacity:0.5;fill:none;stroke:#FFFFFF;stroke-miterlimit:10;}
	.st5{fill:#FFCB05;}
	.st6{fill:#0083B6;}
	.st7{fill:#6CC8C1;}
</style>
<g>
	<g>
		<g>
			<path class="st0" d="M14.5,227.3h2.2l9.6,22.7h-2.4l-2.5-6h-12l-2.6,6H4.6L14.5,227.3z M15.5,229.6L10.2,242h10.4L15.5,229.6z"/>
			<path class="st0" d="M29.2,225.8h1.9V250h-1.9V225.8z"/>
			<path class="st0" d="M36.9,225.8h1.9V250h-1.9V225.8z"/>
			<path class="st0" d="M57.4,247.2c-1.5,2.2-3.8,3.2-6.4,3.2c-4.5,0-7.5-3.2-7.5-7.8c0-4.4,3.1-7.8,7.4-7.8c4.6,0,7,3.5,7,6.9v1.3
				H45.4c0,1.6,1.1,5.6,5.6,5.6c2,0,4-1,5-2.6L57.4,247.2z M55.9,241.3c0-2.6-2.3-4.8-5.1-4.8c-4.2,0-5.4,4-5.4,4.8H55.9z"/>
			<path class="st0" d="M77,249c0,7.4-4.9,8.7-7.9,8.7c-3,0-5.8-1.2-7.3-3.1l1.5-1.4c1.3,1.9,3.5,2.8,5.8,2.8c5.9,0,6-5.1,6-6.8
				v-2.1H75c-1.1,1.8-3.1,2.9-5.6,2.9c-4.4,0-7.9-3.4-7.9-7.6c0-4.2,3.6-7.6,7.9-7.6c2.5,0,4.5,1.1,5.6,2.9h0.1v-2.5H77V249z
				 M69.3,236.5c-3.2,0-5.9,2.6-5.9,5.9c0,3.2,2.6,5.9,5.9,5.9c3.2,0,5.9-2.6,5.9-5.9C75.2,239.1,72.5,236.5,69.3,236.5z"/>
			<path class="st0" d="M81.7,239.3c0-1.1-0.2-3.4-0.2-4.2h1.9c0,1.1,0.1,2.3,0.1,2.6c1-1.7,2.5-3,4.7-3c0.4,0,0.7,0.1,1.1,0.2
				l-0.2,1.9c-0.3-0.1-0.5-0.1-0.7-0.1c-3.3,0-4.8,2.3-4.8,5.2v8.1h-1.9V239.3z"/>
			<path class="st0" d="M98.8,234.8c4.6,0,7.8,3.3,7.8,7.8s-3.2,7.8-7.8,7.8c-4.6,0-7.8-3.3-7.8-7.8S94.2,234.8,98.8,234.8z
				 M98.8,248.6c3.6,0,5.9-2.7,5.9-6.1s-2.2-6.1-5.9-6.1c-3.6,0-5.9,2.7-5.9,6.1S95.2,248.6,98.8,248.6z"/>
			<path class="st0" d="M119.5,227.3h3.2l8.3,19l8.3-19h3V250h-2.1v-20h-0.1l-8.7,20h-0.9l-8.8-20h-0.1v20h-2.1V227.3z"/>
			<path class="st0" d="M160.2,245.8c0,1.1,0.2,3.4,0.2,4.2h-1.9c0-1.1-0.1-2.3-0.1-2.6h-0.1c-0.8,1.6-2.7,3-5.1,3
				c-4.6,0-5.6-3.1-5.6-6.4v-8.8h1.9v8.7c0,2.4,0.7,4.7,3.7,4.7c2.9,0,5.1-2,5.1-6.1v-7.4h1.9V245.8z"/>
			<path class="st0" d="M165.6,246.2c0.8,1.6,2.6,2.4,4.3,2.4c1.7,0,3.4-1,3.4-2.7c0-4.1-8.8-1.2-8.8-6.9c0-2.9,2.6-4.3,5.1-4.3
				c2.4,0,4.3,0.9,5.2,2.8l-1.7,1c-0.7-1.3-1.8-2.1-3.5-2.1c-1.4,0-3.1,0.8-3.1,2.4c0,4,8.8,0.9,8.8,6.9c0,3-2.5,4.6-5.3,4.6
				c-2.5,0-4.8-1-6-3L165.6,246.2z"/>
			<path class="st0" d="M180.5,227.9c0.8,0,1.4,0.6,1.4,1.4c0,0.8-0.6,1.4-1.4,1.4c-0.8,0-1.4-0.6-1.4-1.4
				C179,228.5,179.7,227.9,180.5,227.9z M179.5,235.2h1.9V250h-1.9V235.2z"/>
			<path class="st0" d="M199.8,247.4L199.8,247.4c-1.3,2.1-3.8,3-6,3c-4.6,0-7.8-3.3-7.8-7.8s3.2-7.8,7.8-7.8c2.2,0,4.7,0.9,5.9,3
				h0.1v-2.6h1.9v22.1h-1.9V247.4z M193.8,236.5c-3.6,0-5.9,2.7-5.9,6.1s2.2,6.1,5.9,6.1c3.5,0,6.2-2.7,6.2-6.1
				S197.3,236.5,193.8,236.5z"/>
			<path class="st0" d="M219,245.8c0,1.1,0.2,3.4,0.2,4.2h-1.9c0-1.1-0.1-2.3-0.1-2.6H217c-0.8,1.6-2.7,3-5.1,3
				c-4.6,0-5.6-3.1-5.6-6.4v-8.8h1.9v8.7c0,2.4,0.7,4.7,3.7,4.7c2.9,0,5.1-2,5.1-6.1v-7.4h1.9V245.8z"/>
			<path class="st0" d="M237.4,247.2c-1.5,2.2-3.8,3.2-6.4,3.2c-4.5,0-7.5-3.2-7.5-7.8c0-4.4,3.1-7.8,7.4-7.8c4.5,0,7,3.5,7,6.9v1.3
				h-12.4c0,1.6,1.1,5.6,5.6,5.6c2,0,4-1,5-2.6L237.4,247.2z M235.9,241.3c0-2.6-2.3-4.8-5.1-4.8c-4.2,0-5.4,4-5.4,4.8H235.9z"/>
		</g>
		<g>
			<path class="st1" d="M14.5,281.1c0.3,0.9,1.3,1.4,2.3,1.4c1,0,2-0.6,2.2-1.6c0.3-2.3-4.9-0.7-4.5-3.9c0.2-1.7,1.9-2.4,3.2-2.4
				c1.4,0,2.4,0.5,2.8,1.6l-1.1,0.6c-0.3-0.8-0.8-1.2-1.8-1.2c-0.8,0-1.9,0.5-2,1.4c-0.3,2.3,5,0.5,4.5,3.9
				c-0.2,1.7-1.8,2.6-3.4,2.6c-1.4,0-2.7-0.5-3.2-1.7L14.5,281.1z"/>
			<path class="st1" d="M22.3,281.1c0.3,0.9,1.3,1.4,2.3,1.4c1,0,2-0.6,2.2-1.6c0.3-2.3-4.9-0.7-4.5-3.9c0.2-1.7,1.9-2.4,3.2-2.4
				c1.4,0,2.4,0.5,2.8,1.6l-1.1,0.6c-0.3-0.8-0.8-1.2-1.8-1.2c-0.8,0-1.9,0.5-2,1.4c-0.3,2.3,5,0.5,4.5,3.9
				c-0.2,1.7-1.8,2.6-3.4,2.6c-1.5,0-2.7-0.5-3.2-1.7L22.3,281.1z"/>
			<path class="st1" d="M35.1,274.6c2.6,0,4.2,1.9,3.8,4.5c-0.4,2.6-2.5,4.5-5.1,4.5c-2.6,0-4.2-1.9-3.8-4.5
				C30.3,276.5,32.5,274.6,35.1,274.6z M34,282.5c2.1,0,3.6-1.6,3.8-3.5c0.3-1.9-0.8-3.5-2.9-3.5c-2.1,0-3.6,1.6-3.8,3.5
				C30.8,281,31.9,282.5,34,282.5z"/>
			<path class="st1" d="M48.1,282c-1,1-2.1,1.5-3.3,1.5c-2.6,0-4.2-1.9-3.8-4.5c0.4-2.6,2.5-4.5,5.1-4.5c1.2,0,2.3,0.5,3,1.5l-1,0.7
				c-0.5-0.7-1.2-1.1-2.1-1.1c-2.1,0-3.6,1.6-3.9,3.5c-0.3,1.9,0.8,3.5,2.9,3.5c0.9,0,1.8-0.5,2.5-1.2L48.1,282z"/>
			<path class="st1" d="M51,274.8h1.1l-1.2,8.5h-1.1L51,274.8z M52.1,270.6c0.5,0,0.8,0.4,0.7,0.8c-0.1,0.5-0.5,0.8-0.9,0.8
				c-0.5,0-0.8-0.4-0.7-0.8C51.3,271,51.7,270.6,52.1,270.6z"/>
			<path class="st1" d="M61.1,279.7c-0.2,1.7-0.3,2.6-0.3,3.6h-1c0-0.4,0-0.9,0.1-1.4h0c-0.8,1.1-1.8,1.6-3.2,1.6
				c-1.5,0-2.9-0.7-2.6-2.5c0.4-2.6,3.4-2.8,5.1-2.8h1.3l0.1-0.5c0.2-1.5-0.7-2.1-2.1-2.1c-1,0-1.9,0.3-2.7,1l-0.5-0.8
				c0.9-0.8,2.3-1.2,3.4-1.2c2.1,0,3.3,0.9,2.9,3.1L61.1,279.7z M59,279c-1.8,0-3.7,0.5-3.9,1.9c-0.1,1,0.8,1.6,1.7,1.6
				c2.4,0,3.2-1.5,3.4-2.9l0.1-0.6H59z"/>
			<path class="st1" d="M68.8,275.8h-2.4l-0.8,5.5c-0.1,0.8,0.3,1.2,1,1.2c0.4,0,0.9-0.1,1.3-0.3l-0.1,1c-0.4,0.1-1.1,0.3-1.5,0.3
				c-1.6,0-2-1-1.9-2.2l0.8-5.5h-1.8l0.1-1h1.8l0.3-2.4h1.1l-0.3,2.4h2.4L68.8,275.8z"/>
			<path class="st1" d="M71.1,274.8h1.1l-1.2,8.5h-1.1L71.1,274.8z M72.2,270.6c0.5,0,0.8,0.4,0.7,0.8c-0.1,0.5-0.5,0.8-0.9,0.8
				c-0.5,0-0.8-0.4-0.7-0.8C71.3,271,71.7,270.6,72.2,270.6z"/>
			<path class="st1" d="M79.3,274.6c2.6,0,4.2,1.9,3.8,4.5c-0.4,2.6-2.5,4.5-5.1,4.5c-2.6,0-4.2-1.9-3.8-4.5
				C74.6,276.5,76.7,274.6,79.3,274.6z M78.2,282.5c2.1,0,3.6-1.6,3.9-3.5c0.3-1.9-0.8-3.5-2.9-3.5c-2.1,0-3.6,1.6-3.9,3.5
				C75,281,76.1,282.5,78.2,282.5z"/>
			<path class="st1" d="M85.9,277.2c0.1-0.6,0.2-1.9,0.3-2.4h1.1c-0.1,0.6-0.2,1.3-0.1,1.5h0.1c0.6-0.9,1.8-1.7,3.1-1.7
				c2.6,0,3,1.8,2.7,3.7l-0.7,5.1h-1.1l0.7-5c0.2-1.4,0-2.7-1.7-2.7c-1.6,0-3.1,1.1-3.4,3.5l-0.6,4.2H85L85.9,277.2z"/>
			<path class="st1" d="M101,274.8h1.1l-0.2,1.5h0c0.8-1.2,2.4-1.7,3.6-1.7c2.6,0,4.2,1.9,3.8,4.5c-0.4,2.6-2.5,4.5-5.1,4.5
				c-1.3,0-2.6-0.5-3.2-1.7h0l-0.8,5.7h-1.1L101,274.8z M104.4,282.5c2.1,0,3.6-1.6,3.8-3.5c0.3-1.9-0.8-3.5-2.9-3.5
				c-2,0-3.8,1.6-4,3.5C101.1,281,102.4,282.5,104.4,282.5z"/>
			<path class="st1" d="M116.4,274.6c2.6,0,4.2,1.9,3.8,4.5c-0.4,2.6-2.5,4.5-5.1,4.5c-2.6,0-4.2-1.9-3.8-4.5
				C111.7,276.5,113.8,274.6,116.4,274.6z M115.3,282.5c2.1,0,3.6-1.6,3.9-3.5c0.3-1.9-0.8-3.5-2.9-3.5c-2.1,0-3.6,1.6-3.8,3.5
				C112.2,281,113.3,282.5,115.3,282.5z"/>
			<path class="st1" d="M129.7,280.9c-0.1,0.6-0.2,1.9-0.2,2.4h-1.1c0.1-0.6,0.2-1.3,0.1-1.5h-0.1c-0.6,0.9-1.8,1.7-3.1,1.7
				c-2.6,0-3-1.8-2.7-3.7l0.7-5h1.1l-0.7,5c-0.2,1.4,0,2.7,1.7,2.7c1.6,0,3.1-1.1,3.4-3.5l0.6-4.2h1.1L129.7,280.9z"/>
			<path class="st1" d="M133.2,277.2c0.1-0.6,0.2-1.9,0.2-2.4h1.1c-0.1,0.6-0.2,1.3-0.1,1.5c0.7-1,1.7-1.7,2.9-1.7
				c0.2,0,0.4,0,0.6,0.1l-0.3,1.1c-0.2-0.1-0.3-0.1-0.4-0.1c-1.9,0-3,1.3-3.2,3l-0.7,4.6h-1.1L133.2,277.2z"/>
			<path class="st1" d="M6,288.7h1.1l-2,13.9H4L6,288.7z"/>
			<path class="st1" d="M10.9,289.6h1.3l-2,4.2H9.2L10.9,289.6z"/>
			<path class="st1" d="M20.7,301c-1,1.3-2.4,1.8-3.9,1.8c-2.6,0-4-1.9-3.7-4.5c0.4-2.5,2.4-4.4,4.9-4.4c2.6,0,3.7,2,3.4,4l-0.1,0.8
				h-7.1c-0.1,0.9,0.2,3.2,2.8,3.2c1.1,0,2.4-0.6,3.1-1.5L20.7,301z M20.4,297.6c0.2-1.5-0.9-2.8-2.5-2.8c-2.4,0-3.4,2.3-3.5,2.8
				H20.4z"/>
			<path class="st1" d="M24.1,296.5c0.1-0.6,0.2-1.9,0.2-2.4h1.1c-0.1,0.6-0.2,1.3-0.1,1.5h0.1c0.6-0.9,1.8-1.7,3.1-1.7
				c2.6,0,3,1.8,2.7,3.7l-0.7,5.1h-1.1l0.7-5c0.2-1.4,0-2.7-1.7-2.7c-1.6,0-3.1,1.1-3.4,3.5l-0.6,4.2h-1.1L24.1,296.5z"/>
			<path class="st1" d="M33.8,300.4c0.3,0.9,1.3,1.4,2.3,1.4c1,0,2-0.6,2.2-1.6c0.3-2.3-4.9-0.7-4.5-3.9c0.2-1.7,1.9-2.4,3.3-2.4
				c1.4,0,2.4,0.5,2.8,1.6l-1.1,0.6c-0.3-0.8-0.8-1.2-1.8-1.2c-0.8,0-1.9,0.5-2,1.4c-0.3,2.3,5,0.5,4.5,4c-0.2,1.8-1.8,2.6-3.4,2.6
				c-1.5,0-2.7-0.5-3.2-1.7L33.8,300.4z"/>
			<path class="st1" d="M49,301c-1,1.3-2.4,1.8-3.9,1.8c-2.6,0-4-1.9-3.7-4.5c0.4-2.5,2.4-4.4,4.9-4.4c2.6,0,3.7,2,3.4,4l-0.1,0.8
				h-7.1c-0.1,0.9,0.2,3.2,2.8,3.2c1.1,0,2.4-0.6,3.1-1.5L49,301z M48.6,297.6c0.2-1.5-0.9-2.8-2.5-2.8c-2.4,0-3.4,2.3-3.5,2.8H48.6
				z"/>
			<path class="st1" d="M52.9,294.1H54l-1.2,8.5h-1.1L52.9,294.1z M54,289.9c0.5,0,0.8,0.4,0.7,0.8c-0.1,0.5-0.5,0.8-0.9,0.8
				c-0.5,0-0.8-0.4-0.7-0.8C53.2,290.2,53.6,289.9,54,289.9z"/>
			<path class="st1" d="M64.5,302c-0.6,4.2-3.5,5-5.2,5c-1.7,0-3.2-0.7-4-1.8l1-0.8c0.6,1.1,1.8,1.6,3.1,1.6c3.4,0,3.8-2.9,4-3.9
				l0.2-1.2h0c-0.8,1-2,1.7-3.5,1.7c-2.5,0-4.3-2-3.9-4.4c0.3-2.4,2.7-4.4,5.2-4.4c1.5,0,2.5,0.6,3,1.7h0l0.2-1.4h1.1L64.5,302z
				 M61.1,294.8c-1.9,0-3.6,1.5-3.8,3.4c-0.3,1.9,1,3.4,2.9,3.4c1.9,0,3.6-1.5,3.8-3.4C64.3,296.3,63,294.8,61.1,294.8z"/>
			<path class="st1" d="M68,296.5c0.1-0.6,0.2-1.9,0.2-2.4h1.1c-0.1,0.6-0.1,1.3-0.1,1.5h0.1c0.6-0.9,1.8-1.7,3.1-1.7
				c2.6,0,3,1.8,2.7,3.7l-0.7,5.1h-1.1l0.7-5c0.2-1.4,0-2.7-1.7-2.7c-1.6,0-3.1,1.1-3.4,3.5l-0.6,4.2h-1.1L68,296.5z"/>
			<path class="st1" d="M85.1,301c-1,1.3-2.4,1.8-3.9,1.8c-2.6,0-4-1.9-3.7-4.5c0.4-2.5,2.4-4.4,4.9-4.4c2.6,0,3.7,2,3.4,4l-0.1,0.8
				h-7.1c-0.1,0.9,0.2,3.2,2.8,3.2c1.1,0,2.4-0.6,3.1-1.5L85.1,301z M84.7,297.6c0.2-1.5-0.9-2.8-2.6-2.8c-2.4,0-3.4,2.3-3.5,2.8
				H84.7z"/>
			<path class="st1" d="M88.5,296.5c0.1-0.6,0.2-1.9,0.2-2.4h1.1c-0.1,0.6-0.1,1.3-0.1,1.5h0.1c0.6-0.9,1.8-1.7,3.1-1.7
				c1.1,0,2.1,0.6,2.3,1.8c0.7-1.3,2-1.8,3.1-1.8c2.6,0,3,1.8,2.7,3.7l-0.7,5.1h-1.1l0.7-5c0.2-1.4,0-2.7-1.7-2.7
				c-2,0-2.8,1.7-3,2.9l-0.7,4.8h-1.1l0.7-5.1c0.2-1.6-0.2-2.6-1.4-2.6c-1.6,0-3.1,1.1-3.4,3.5l-0.6,4.2h-1.1L88.5,296.5z"/>
			<path class="st1" d="M111,301c-1,1.3-2.4,1.8-3.9,1.8c-2.6,0-4-1.9-3.7-4.5c0.4-2.5,2.4-4.4,4.9-4.4c2.6,0,3.7,2,3.4,4l-0.1,0.8
				h-7.1c-0.1,0.9,0.2,3.2,2.8,3.2c1.1,0,2.4-0.6,3.1-1.5L111,301z M110.6,297.6c0.2-1.5-0.9-2.8-2.5-2.8c-2.4,0-3.4,2.3-3.5,2.8
				H110.6z"/>
			<path class="st1" d="M114.3,296.5c0.1-0.6,0.2-1.9,0.2-2.4h1.1c-0.1,0.6-0.2,1.3-0.1,1.5h0.1c0.6-0.9,1.8-1.7,3.1-1.7
				c2.6,0,3,1.8,2.7,3.7l-0.7,5.1h-1.1l0.7-5c0.2-1.4,0-2.7-1.7-2.7c-1.6,0-3.1,1.1-3.4,3.5l-0.6,4.2h-1.1L114.3,296.5z"/>
			<path class="st1" d="M128.9,295.1h-2.4l-0.8,5.5c-0.1,0.8,0.3,1.2,1,1.2c0.4,0,0.9-0.1,1.3-0.3l0,1c-0.4,0.2-1.1,0.3-1.5,0.3
				c-1.6,0-2-1-1.9-2.2l0.8-5.5h-1.8l0.1-1h1.8l0.3-2.4h1.1l-0.3,2.4h2.4L128.9,295.1z"/>
			<path class="st1" d="M135.4,296.5c0.1-0.6,0.2-1.9,0.2-2.4h1.1c-0.1,0.6-0.1,1.3-0.1,1.5h0.1c0.6-0.9,1.8-1.7,3.1-1.7
				c1.1,0,2.1,0.6,2.3,1.8c0.7-1.3,2-1.8,3.1-1.8c2.6,0,3,1.8,2.7,3.7l-0.7,5.1h-1.1l0.7-5c0.2-1.4,0-2.7-1.7-2.7
				c-2,0-2.8,1.7-3,2.9l-0.7,4.8h-1.1l0.7-5.1c0.2-1.6-0.2-2.6-1.4-2.6c-1.6,0-3.1,1.1-3.4,3.5l-0.6,4.2h-1.1L135.4,296.5z"/>
			<path class="st1" d="M157.8,300.2c-0.1,0.6-0.2,1.9-0.2,2.4h-1.1c0.1-0.6,0.1-1.3,0.1-1.5h-0.1c-0.6,0.9-1.8,1.7-3.1,1.7
				c-2.6,0-3-1.8-2.7-3.7l0.7-5.1h1.1l-0.7,5c-0.2,1.4,0,2.7,1.7,2.7c1.6,0,3.1-1.1,3.4-3.5l0.6-4.2h1.1L157.8,300.2z"/>
			<path class="st1" d="M160.8,300.4c0.3,0.9,1.3,1.4,2.3,1.4c1,0,2-0.6,2.2-1.6c0.3-2.3-4.9-0.7-4.5-3.9c0.2-1.7,1.8-2.4,3.2-2.4
				c1.4,0,2.4,0.5,2.8,1.6l-1.1,0.6c-0.3-0.8-0.8-1.2-1.8-1.2c-0.8,0-1.9,0.5-2,1.4c-0.3,2.3,5,0.5,4.5,4c-0.2,1.8-1.8,2.6-3.4,2.6
				c-1.5,0-2.7-0.5-3.2-1.7L160.8,300.4z"/>
			<path class="st1" d="M169.7,294.1h1.1l-1.2,8.5h-1.1L169.7,294.1z M170.8,289.9c0.5,0,0.8,0.4,0.7,0.8c-0.1,0.5-0.5,0.8-0.9,0.8
				c-0.5,0-0.8-0.4-0.7-0.8C169.9,290.2,170.4,289.9,170.8,289.9z"/>
			<path class="st1" d="M180,301.3c-1,1-2.1,1.5-3.3,1.5c-2.6,0-4.2-1.9-3.8-4.5c0.4-2.6,2.5-4.5,5.1-4.5c1.2,0,2.3,0.5,3,1.5
				l-1,0.7c-0.5-0.7-1.2-1.1-2.1-1.1c-2.1,0-3.6,1.6-3.9,3.5c-0.3,1.9,0.8,3.5,2.9,3.5c0.9,0,1.8-0.5,2.4-1.2L180,301.3z"/>
			<path class="st1" d="M188.6,299c-0.2,1.7-0.3,2.6-0.3,3.6h-1c0-0.4,0-0.9,0.1-1.4h0c-0.8,1.1-1.8,1.6-3.2,1.6
				c-1.4,0-2.9-0.7-2.6-2.5c0.4-2.6,3.4-2.8,5.1-2.8h1.3l0.1-0.5c0.2-1.5-0.7-2.1-2.1-2.1c-1,0-1.9,0.3-2.7,1l-0.5-0.8
				c0.9-0.8,2.3-1.2,3.4-1.2c2.1,0,3.3,0.9,2.9,3.1L188.6,299z M186.5,298.3c-1.8,0-3.7,0.5-3.9,1.9c-0.1,1,0.8,1.6,1.7,1.6
				c2.4,0,3.2-1.5,3.4-2.9l0.1-0.6H186.5z"/>
			<path class="st1" d="M193.2,288.7h1.1l-2,13.9h-1.1L193.2,288.7z"/>
		</g>
		<g>
			<path class="st2" d="M53.7,57.3c6.5-3,15.7,0.2,21.4,7.5c2.1,2.8,4.3-2.9,6.9-6.2c2.1-2.7,3.4-5.9,5.1-8.9
				c3.5-5.8,11.9-8.7,16.5-10.4c6.4-2.4,20.6-3.2,25.5-7.6c2.1-8.1,4.9-10.1,12.5-9.9c4.3,3.6,4.2,5.4,4.9,9.5
				c8,4.3,18.4,2.5,26.7,5.4c6.5,2.3,13,7.1,19.6,8.2c7.4-6,21.2-33.2,28.9-35.5c2.2,0.4,4.3,0.9,6.5,1.3c4.6,8.5-2.5,21.8-6.3,30.6
				c-1.2,2.8-5.3,7.3-4,9.9l0.2-0.2c3-7.5,18.4-9.2,20.8,0.5c2.8,10.8-8.2,13.3-14.3,18.6c-0.2,0.6-0.3,1.2-0.5,1.8
				c11,24.5,16.7,41.4,5.7,67c4.1,3.1,10.6,5.7,14.8,5.4c1-1.5,2-3.1,3-4.6c1.1-0.1,2.3-0.2,3.4-0.4c0.5,0.7,1,1.4,1.5,2.2
				c-1.5,2.5-5.4,5.6-7.8,6.4c-5.7-2.3-12-5.6-17.3-3.5c-0.6,0.3-12.8,13.4-13.3,15c-0.6,2-0.2,5.3,0.7,7.2c2.9,0,6.1,0.3,9,2
				c-0.3,0.2-0.7,0.4-1,0.7c-5.3-2-13.5,0.1-18.4,3.3c-3,1.9-3.8,5.8-6.1,7.6c-0.7,0.1-1.5,0.2-2.2,0.3c-2.5-2.4-6-8-8.6-7.9
				c-5.1,0.9-10.1,1.8-15.2,2.7c-7.6,1-18-0.3-25.5-1.7c-14.8-2.7-25.5-20.3-35.2-32.5c-2.1-2.6-4.7-0.2-6.6-3.3
				c-1.1-1.8-0.2-3.8-1.7-5.8c-4.6-1.2-8.5,0.6-13.1-3c-0.2-0.5-0.3-1.1-0.5-1.6c1.3-2.3,4.7-4.9,4.9-7.5c0.3-3.3-3.6-6.2-5.3-9.5
				c-4-7.8-4.8-18.2-10.7-25.2c-1.7,0.1-2.9-0.1-4.7-0.8L73,82c0.5-1.2,1.5-2.4,1.5-3.7c-0.2-5.6-2.9-7.8-5.4-8.2
				c-2.5-0.4-6,1.8-8.5,0.4c-3.2-1.8-5.4-7.8-7.4-11C53.4,58.8,53.6,58,53.7,57.3"/>
			<path class="st2" d="M72.7,51.1c1-2.7,1.9-4.1,5.7-4c1.1,0.7,1.7,1.3,2.3,2.6c0.4,1.5,0.1,2.9-0.3,4.3c-1.1,0.7-2.3,1.3-3.4,2
				c-0.8-0.4-1.7-0.8-2.6-1.1C73.8,53.6,73.2,52.3,72.7,51.1"/>
			<path class="st2" d="M78.4,171c-0.1-5.1,2.4-7.1,5.7-8.8c1.4,0.3,2.9,0.6,4.3,0.9c3.8,2.7,4.9,6.8,3.1,11.4
				c-0.2,0.1-0.4,0.2-0.6,0.3C84.4,174.9,81.6,173.8,78.4,171"/>
			<path class="st2" d="M147.7,2.6c1,1.1,1.9,2.1,2.9,3.1c1.4-0.8,1.7-1.2,1.7-3.4c-0.7-0.8-1.3-1.5-2-2.3c-0.9,0.4-1.7,0.8-2.6,1.1
				V2.6z"/>
			<path class="st2" d="M152.9,21.4c0.2,0.5,0.4,0.9,0.6,1.4c0.5-0.1,0.9-0.2,1.4-0.3c-0.1-0.8-0.2-1.5-0.3-2.3
				c-0.2-0.3-0.4-0.6-0.6-0.9c-0.3,0.1-0.6,0.2-0.8,0.3C153,20.3,153,20.8,152.9,21.4"/>
			<path class="st2" d="M153.4,12.8c0.2-0.3,0.4-0.6,0.6-0.9C153.4,12.5,153.8,12,153.4,12.8"/>
			<path class="st2" d="M159.4,18c0.2,0.1,0.4,0.2,0.6,0.3c0.2-0.2,0.4-0.4,0.6-0.6c-0.1-0.3-0.2-0.6-0.3-0.8H160
				C159.8,17.2,159.6,17.6,159.4,18"/>
			<path class="st2" d="M168.6,26.8h0.6C168.6,26.6,169.1,26.6,168.6,26.8"/>
			<path class="st2" d="M169.1,28.5c0.9,0.9,1.1,1.3,2.6,1.7v-0.6c0.1-0.3,0.2-0.6,0.3-0.9c-0.9-0.6-1.7-1.1-2.6-1.7h-0.3V28.5z"/>
			<path class="st2" d="M230.5,124.7c0.7,0.2,1.3,0.4,2,0.6c0.4-0.5,0.8-1,1.1-1.4c-0.1-0.5-0.2-1-0.3-1.4c-0.6-0.1-1.1-0.2-1.7-0.3
				c-0.4,0.3-0.8,0.6-1.1,0.9V124.7z"/>
			<path class="st2" d="M232.8,20.3c-0.6-16,20.6-10,16-0.6C245.4,28.9,237.1,27.9,232.8,20.3"/>
		</g>
		<g>
			<path class="st3" d="M140.3,59.6c-25.2,0-39.7,20.2-39.7,44.5c0,12,9.7,21.7,21.7,21.7c12,0,21.7-9.7,21.7-21.7
				c0-10.1-6.9-18.7-16.3-21.1v0c-3.3-1-5.6-3.9-5.6-7.6c0-4.5,4.7-7.5,9.4-8.7c22.4-4.5,36.9,17.5,37.6,48.7
				c0.6,23.6-7.5,65.9-62.4,92.3c-1,0.3-1.6,1.4-1.3,2.3c0.3,1,1.3,1.5,2.3,1.2c47.2-19.4,77-50,79.2-95.9
				C188.4,83.1,168.5,59.6,140.3,59.6z"/>
			<path class="st3" d="M225.3,89c0,8.8-7.1,15.9-15.9,15.9c-8.8,0-15.9-7.1-15.9-15.9c0-8.8,7.1-15.9,15.9-15.9
				C218.1,73.1,225.3,80.2,225.3,89z"/>
			<path class="st3" d="M225.3,128c0,8.8-7.1,15.9-15.9,15.9c-8.8,0-15.9-7.1-15.9-15.9c0-8.8,7.1-15.9,15.9-15.9
				C218.1,112.1,225.3,119.2,225.3,128z"/>
		</g>
		<path class="st4" d="M125.4,16.9c40.3,14.9,69.1,53.6,69.1,99.1c0,58.3-47.3,105.6-105.6,105.6"/>
		<path class="st4" d="M115,136.6C90.8,123,81.1,94.6,93.2,73c6-10.7,28.6-35.2,65.6-14.5"/>
		<g>
			<path class="st5" d="M137.4,57.7c-25.2,0-39.7,20.2-39.7,44.5c0,12,9.7,21.7,21.7,21.7c12,0,21.7-9.7,21.7-21.7
				c0-10.1-6.9-18.7-16.3-21.1v0c-3.3-1-5.6-3.9-5.6-7.6c0-4.5,4.7-7.5,9.4-8.7c22.4-4.5,36.9,17.5,37.6,48.7
				c0.6,23.6-7.5,65.9-62.4,92.3c-1,0.3-1.6,1.4-1.3,2.3c0.3,1,1.3,1.5,2.3,1.2c47.2-19.4,77-50,79.2-95.9
				C185.5,81.2,165.6,57.7,137.4,57.7z"/>
			<path class="st6" d="M222.4,87.1c0,8.8-7.1,15.9-15.9,15.9c-8.8,0-15.9-7.1-15.9-15.9c0-8.8,7.1-15.9,15.9-15.9
				C215.2,71.2,222.4,78.3,222.4,87.1z"/>
			<path class="st7" d="M222.4,126.1c0,8.8-7.1,15.9-15.9,15.9c-8.8,0-15.9-7.1-15.9-15.9c0-8.8,7.1-15.9,15.9-15.9
				C215.2,110.2,222.4,117.3,222.4,126.1z"/>
		</g>
	</g>
	<g>
		<path class="st1" d="M7.4,270.7h1.2l3.6,12.8h-1.3l-0.9-3.4H3.2l-1.9,3.4H0L7.4,270.7z M7.8,272l-4,7h5.9L7.8,272z"/>
	</g>
</g>
</svg>
